<svg xmlns="http://www.w3.org/2000/svg" shape-rendering="geometricPrecision" text-rendering="geometricPrecision" image-rendering="optimizeQuality" fill-rule="evenodd" clip-rule="evenodd" viewBox="0 0 512 511.991"><path fill="#168DE2" d="M87.108 310.289c-33.533 33.534-27.587 78.622-47.833 112.042-8.719 14.393-17.943 20.48-29.155 31.691-13.352 13.353-13.513 35.043-.354 48.201l.002.002c13.159 13.159 34.848 12.998 48.201-.355 11.352-11.351 15.735-18.792 29.776-27.952 33.317-21.731 79.775-14.854 113.956-49.035 112.269-112.263 77.537-77.541 191.918-191.918L279.034 118.38c-112.973 112.967-78.957 78.941-191.926 191.909z"/><path fill="#74C6FF" d="M138.758 287.346l154.623-154.623 85.889 85.889-103.986 103.986c-44.742-10.921-96.383 10.32-136.526-35.252z"/><path fill="#DD4B4C" d="M430.511 192.192l54.874-54.875c32.672-32.671 36.702-82.1 4.047-114.754l-.001-.001c-32.655-32.655-82.099-28.609-114.754 4.047l-54.875 54.874 110.709 110.709z"/><path fill="#C94849" d="M304.16 62.7l145.134 145.133c26.726 26.727-13.679 67.128-40.404 40.403L263.757 103.103C237.032 76.378 277.433 35.974 304.16 62.7z"/></svg>