<?xml version="1.0" encoding="iso-8859-1"?>
<!-- Generator: Adobe Illustrator 19.1.1, SVG Export Plug-In . SVG Version: 6.00 Build 0)  -->
<svg version="1.1"  xmlns="http://www.w3.org/2000/svg" xmlns:xlink="http://www.w3.org/1999/xlink" x="0px" y="0px"
	 viewBox="0 0 48 48" style="enable-background:new 0 0 48 48;" xml:space="preserve">
<path style="fill:#CFD8DC;" d="M5,39V15h38v24c0,2.209-1.791,4-4,4H9C6.791,43,5,41.209,5,39"/>
<path style="fill:#F44336;" d="M43,11v6H5v-6c0-2.209,1.791-4,4-4h30C41.209,7,43,8.791,43,11"/>
<path style="fill:#B71C1C;" d="M36,11c0,1.656-1.343,3-3,3c-1.657,0-3-1.344-3-3c0-1.656,1.343-3,3-3C34.657,8,36,9.344,36,11"/>
<path style="fill:#B71C1C;" d="M18,11c0,1.656-1.343,3-3,3c-1.657,0-3-1.344-3-3c0-1.656,1.343-3,3-3C16.657,8,18,9.344,18,11"/>
<path style="fill:#B0BEC5;" d="M33,4c-1.105,0-2,0.897-2,2v5c0,1.104,0.895,2,2,2c1.103,0,2-0.896,2-2V6C35,4.897,34.103,4,33,4"/>
<path style="fill:#B0BEC5;" d="M15,4c-1.105,0-2,0.897-2,2v5c0,1.104,0.895,2,2,2c1.103,0,2-0.896,2-2V6C17,4.897,16.103,4,15,4"/>
<polygon style="fill:#78909C;" points="17,23 17,37 25,30 "/>
<rect x="5" y="28" style="fill:#78909C;" width="14" height="4"/>
</svg>
